# xmcd CD database file
#
# Track frame offsets:
#	150
#	18571
#	36920
#	50019
#	63271
#	80950
#	101168
#	118958
#	135407
#	150160
#	166414
#	182581
#	196482
#	213558
#	230840
#	248759
#	267430
#	285506
#	303359
#	319352
#	335296
#
# Disc length: 4671 seconds
#
# Revision: 0
# Processed by: cddbd v1.5.2PL0 Copyright (c) Steve Scherf et al.
# Submitted via: CDex 1.70beta2
#
DISCID=38123d15
DTITLE=Shania Twain - Shania Twain - Greatest Hits
DYEAR=2008
DGENRE=Country
TTITLE0=Forever an for always
TTITLE1=I'm gonna getcha good
TTITLE2=Up
TTITLE3=Come on over
TTITLE4=Man I feel like a woman
TTITLE5=That doesn't impress me much
TTITLE6=From this moment on
TTITLE7=Honey I'm home
TTITLE8=You're still the one
TTITLE9=Don't be stupid
TTITLE10=Love gets me every time
TTITLE11=No one needs to know
TTITLE12=You win my love
TTITLE13=If you're not in it for love
TTITLE14=The woman in me
TTITLE15=Any man of mine
TTITLE16=Whose bed have your boots been
TTITLE17=Don't
TTITLE18=Party for two
TTITLE19=I ain't no qitter
TTITLE20=Ka ching
EXTD=YEAR: 2008
EXTT0=
EXTT1=
EXTT2=
EXTT3=
EXTT4=
EXTT5=
EXTT6=
EXTT7=
EXTT8=
EXTT9=
EXTT10=
EXTT11=
EXTT12=
EXTT13=
EXTT14=
EXTT15=
EXTT16=
EXTT17=
EXTT18=
EXTT19=
EXTT20=
PLAYORDER=
